mtllib material.mtl
o Default
v 0 0.375 0
v 0.875 1.625 -1.5
v -1.75 0.5 -0.5
v -0.875 1.125 1.375
v 0.875 1.625 -1.5
v -1.25 1.25 -1.875
v -0.125 1.5 -2.75
v -1.75 0.5 -0.5
v 1.625 1.5 -0.125
v 0.875 1.625 -1.5
v 1.375 2.625 -2.25
v 0 0.375 0
v -0.875 1.125 1.375
v 1.625 1.5 -0.125
v 1.5 1.5 2.125
v 0 0.375 0
v -0.75 2 4.25
v 1.5 1.5 2.125
v 1 2.25 4.375
v -0.875 1.125 1.375
v -0.75 2 4.25
v -4.440892098500626e-16 3.375 4.75
v -1.75 3.5 4
v 1 2.25 4.375
v 1 2.25 4.375
v 1.25 4.875 3.5
v -4.440892098500626e-16 3.375 4.75
v 1.75 3.5 3.375
v 1 2.25 4.375
v 1.875 3.25 1.5
v 1.75 3.5 3.375
v 1.5 1.5 2.125
v -1.75 3.5 4
v 1.25 4.875 3.5
v -1.25 5 3.625
v -4.440892098500626e-16 3.375 4.75
v 1.75 3.5 3.375
v 1.5 4.625 1.125
v 1.25 4.875 3.5
v 1.875 3.25 1.5
v 1.625 1.5 -0.125
v 1.5 3.375 -1.25
v 2.25 3.625 0
v 1.375 2.625 -2.25
v 1.5 1.5 2.125
v 2.25 3.625 0
v 1.875 3.25 1.5
v 1.625 1.5 -0.125
v 1.875 3.25 1.5
v 1.25 4.625 -0.875
v 1.5 4.625 1.125
v 2.25 3.625 0
v 2.25 3.625 0
v 0.625 4.625 -2.5
v 1.25 4.625 -0.875
v 1.5 3.375 -1.25
v 0.875 1.625 -1.5
v 0.375 3 -3.625
v 1.375 2.625 -2.25
v -0.125 1.5 -2.75
v 1.375 2.625 -2.25
v 0.625 4.625 -2.5
v 1.5 3.375 -1.25
v 0.375 3 -3.625
v 1.5 4.625 1.125
v -1.25 5 3.625
v 1.25 4.875 3.5
v -0.5 4.125 1.375
v 1.25 4.625 -0.875
v -0.5 4.125 1.375
v 1.5 4.625 1.125
v -1.375 4.125 -0.625
v 0.625 4.625 -2.5
v -1.375 4.125 -0.625
v 1.25 4.625 -0.875
v -1.25 4.625 -3
v 0.375 3 -3.625
v -1.25 4.625 -3
v 0.625 4.625 -2.5
v -2.125 3.125 -3.375
v -0.125 1.5 -2.75
v -2.125 3.125 -3.375
v 0.375 3 -3.625
v -1.25 1.25 -1.875
v -2.125 3.125 -3.375
v -1.25 4.125 -0.625
v -1.25 4.625 -3
v -2.125 3.125 -0.625
v -1.25 1.25 -1.875
v -2.125 3.125 -0.625
v -2.125 3.125 -3.375
v -1.75 0.5 -0.5
v -2.125 3.125 -0.625
v -0.5 4.125 1.375
v -1.25 4.125 -0.625
v -2.125 3.125 1.375
v -2.125 3.125 1.375
v -1.25 5 3.625
v -0.5 4.125 1.375
v -1.75 3.5 4
v -0.875 1.125 1.375
v -1.75 3.5 4
v -2.125 3.125 1.375
v -0.75 2 4.25
v -1.75 0.5 -0.5
v -2.125 3.125 1.375
v -2.125 3.125 -0.625
v -0.875 1.125 1.375
vt 0 0.5
vt 0.5 1
vt 0 1
vt 0 0.5
vt 0.5 0.5
vt 0.5 1
vt 0 0.5
vt 0.5 1
vt 0 1
vt 0 0.5
vt 0.5 0.5
vt 0.5 1
vt 0 0.5
vt 0.5 1
vt 0 1
vt 0 0.5
vt 0.5 0.5
vt 0.5 1
vt 0 0.5
vt 0.5 1
vt 0 1
vt 0 0.5
vt 0.5 0.5
vt 0.5 1
vt 0 0.5
vt 0.5 1
vt 0 1
vt 0 0.5
vt 0.5 0.5
vt 0.5 1
vt 0 0.5
vt 0.5 1
vt 0 1
vt 0 0.5
vt 0.5 0.5
vt 0.5 1
vt 0 0.5
vt 0.5 1
vt 0 1
vt 0 0.5
vt 0.5 0.5
vt 0.5 1
vt 0 0.5
vt 0.5 1
vt 0 1
vt 0 0.5
vt 0.5 0.5
vt 0.5 1
vt 0 0.5
vt 0.5 1
vt 0 1
vt 0 0.5
vt 0.5 0.5
vt 0.5 1
vt 0 0.5
vt 0.5 1
vt 0 1
vt 0 0.5
vt 0.5 0.5
vt 0.5 1
vt 0 0.5
vt 0.5 1
vt 0 1
vt 0 0.5
vt 0.5 0.5
vt 0.5 1
vt 0 0.5
vt 0.5 1
vt 0 1
vt 0 0.5
vt 0.5 0.5
vt 0.5 1
vt 0 0.5
vt 0.5 1
vt 0 1
vt 0 0.5
vt 0.5 0.5
vt 0.5 1
vt 0 0.5
vt 0.5 1
vt 0 1
vt 0 0.5
vt 0.5 0.5
vt 0.5 1
vt 0 0.5
vt 0.5 1
vt 0 1
vt 0 0.5
vt 0.5 0.5
vt 0.5 1
vt 0 0.5
vt 0.5 1
vt 0 1
vt 0 0.5
vt 0.5 0.5
vt 0.5 1
vt 0 0.5
vt 0.5 1
vt 0 1
vt 0 0.5
vt 0.5 0.5
vt 0.5 1
vt 0 0.5
vt 0.5 1
vt 0 1
vt 0 0.5
vt 0.5 0.5
vt 0.5 1
vt 0 0.5
vt 0.5 1
vt 0 1
vt 0 0.5
vt 0.5 0.5
vt 0.5 1
vt 0 0.5
vt 0.5 1
vt 0 1
vt 0 0.5
vt 0.5 0.5
vt 0.5 1
vt 0 0.5
vt 0.5 1
vt 0 1
vt 0 0.5
vt 0.5 0.5
vt 0.5 1
vt 0 0.5
vt 0.5 1
vt 0 1
vt 0 0.5
vt 0.5 0.5
vt 0.5 1
vt 0 0.5
vt 0.5 1
vt 0 1
vt 0 0.5
vt 0.5 0.5
vt 0.5 1
vt 0 0.5
vt 0.5 1
vt 0 1
vt 0 0.5
vt 0.5 0.5
vt 0.5 1
vt 0 0.5
vt 0.5 1
vt 0 1
vt 0 0.5
vt 0.5 0.5
vt 0.5 1
vt 0 0.5
vt 0.5 1
vt 0 1
vt 0 0.5
vt 0.5 0.5
vt 0.5 1
vt 0 0.5
vt 0.5 1
vt 0 1
vt 0 0.5
vt 0.5 0.5
vt 0.5 1
vn 0.1135465911607319 -0.7948261381251234 -0.5961196035938425
vn 0.1135465911607319 -0.7948261381251234 -0.5961196035938425
vn 0.1135465911607319 -0.7948261381251234 -0.5961196035938425
vn -0.17439502660378894 -0.9068541383397025 0.3836690585283357
vn -0.17439502660378894 -0.9068541383397025 0.3836690585283357
vn -0.17439502660378894 -0.9068541383397025 0.3836690585283357
vn 0.18164631392351105 -0.982235623438245 -0.047093488794984345
vn 0.18164631392351105 -0.982235623438245 -0.047093488794984345
vn 0.18164631392351105 -0.982235623438245 -0.047093488794984345
vn 0.22739323995911184 -0.8872795049384953 -0.40128218816313854
vn 0.22739323995911184 -0.8872795049384953 -0.40128218816313854
vn 0.22739323995911184 -0.8872795049384953 -0.40128218816313854
vn 0.6517797023451894 -0.6358826364343312 -0.41332371368231524
vn 0.6517797023451894 -0.6358826364343312 -0.41332371368231524
vn 0.6517797023451894 -0.6358826364343312 -0.41332371368231524
vn 0.5144091183670136 -0.7821118228233166 -0.3516878666386726
vn 0.5144091183670136 -0.7821118228233166 -0.3516878666386726
vn 0.5144091183670136 -0.7821118228233166 -0.3516878666386726
vn 0.15333176637061377 -0.9881380499439554 0.008518431465034098
vn 0.15333176637061377 -0.9881380499439554 0.008518431465034098
vn 0.15333176637061377 -0.9881380499439554 0.008518431465034098
vn 0.4724077713855766 -0.6118805419851278 0.6343761501463457
vn 0.4724077713855766 -0.6118805419851278 0.6343761501463457
vn 0.4724077713855766 -0.6118805419851278 0.6343761501463457
vn 0.10961761428628045 -0.9354036419095931 0.33616068381126
vn 0.10961761428628045 -0.9354036419095931 0.33616068381126
vn 0.10961761428628045 -0.9354036419095931 0.33616068381126
vn 0.059868581185188355 -0.955679944104303 0.2882561316323884
vn 0.059868581185188355 -0.955679944104303 0.2882561316323884
vn 0.059868581185188355 -0.955679944104303 0.2882561316323884
vn -0.3982160867920021 -0.11377602479771493 0.910208198381719
vn -0.3982160867920021 -0.11377602479771493 0.910208198381719
vn -0.3982160867920021 -0.11377602479771493 0.910208198381719
vn -0.019923551681688977 -0.3320591946948163 0.9430481129332783
vn -0.019923551681688977 -0.3320591946948163 0.9430481129332783
vn -0.019923551681688977 -0.3320591946948163 0.9430481129332783
vn 0.5474536553855366 0.21724351404187972 0.8081458722357924
vn 0.5474536553855366 0.21724351404187972 0.8081458722357924
vn 0.5474536553855366 0.21724351404187972 0.8081458722357924
vn 0.6681059013698728 0.17725258607772135 0.7226451586245562
vn 0.6681059013698728 0.17725258607772135 0.7226451586245562
vn 0.6681059013698728 0.17725258607772135 0.7226451586245562
vn 0.8903140303307834 -0.43979367763327853 0.11799342570648937
vn 0.8903140303307834 -0.43979367763327853 0.11799342570648937
vn 0.8903140303307834 -0.43979367763327853 0.11799342570648937
vn 0.9607410436676491 -0.11583402654148961 0.2521093518844186
vn 0.9607410436676491 -0.11583402654148961 0.2521093518844186
vn 0.9607410436676491 -0.11583402654148961 0.2521093518844186
vn 0.059810343048961434 0.22329194738278935 0.9729149135964393
vn 0.059810343048961434 0.22329194738278935 0.9729149135964393
vn 0.059810343048961434 0.22329194738278935 0.9729149135964393
vn -0.22559927372644578 0.7277395926659541 0.647688237472699
vn -0.22559927372644578 0.7277395926659541 0.647688237472699
vn -0.22559927372644578 0.7277395926659541 0.647688237472699
vn 0.939735155216881 0.33594396853163866 0.0635569670194992
vn 0.939735155216881 0.33594396853163866 0.0635569670194992
vn 0.939735155216881 0.33594396853163866 0.0635569670194992
vn 0.9624071025847014 0.270149362129039 0.02814055855510823
vn 0.9624071025847014 0.270149362129039 0.02814055855510823
vn 0.9624071025847014 0.270149362129039 0.02814055855510823
vn 0.8548317760639709 -0.22388451277865903 -0.4681221630826507
vn 0.8548317760639709 -0.22388451277865903 -0.4681221630826507
vn 0.8548317760639709 -0.22388451277865903 -0.4681221630826507
vn 0.9927794530436113 -0.005705629040480525 -0.11981820985009102
vn 0.9927794530436113 -0.005705629040480525 -0.11981820985009102
vn 0.9927794530436113 -0.005705629040480525 -0.11981820985009102
vn 0.9688396703007502 -0.13297799396284807 0.20896541908447552
vn 0.9688396703007502 -0.13297799396284807 0.20896541908447552
vn 0.9688396703007502 -0.13297799396284807 0.20896541908447552
vn 0.9571571118714305 -0.28464476202712474 0.05317539510396836
vn 0.9571571118714305 -0.28464476202712474 0.05317539510396836
vn 0.9571571118714305 -0.28464476202712474 0.05317539510396836
vn 0.9655765473880773 0.23042167608124572 -0.12069706842350966
vn 0.9655765473880773 0.23042167608124572 -0.12069706842350966
vn 0.9655765473880773 0.23042167608124572 -0.12069706842350966
vn 0.5100978665629828 0.7957526718382532 0.326462634600309
vn 0.5100978665629828 0.7957526718382532 0.326462634600309
vn 0.5100978665629828 0.7957526718382532 0.326462634600309
vn 0.7935232965803547 0.5264721871542738 -0.30520126791552105
vn 0.7935232965803547 0.5264721871542738 -0.30520126791552105
vn 0.7935232965803547 0.5264721871542738 -0.30520126791552105
vn 0.8490377129701923 0.07075314274751603 -0.5235732563316186
vn 0.8490377129701923 0.07075314274751603 -0.5235732563316186
vn 0.8490377129701923 0.07075314274751603 -0.5235732563316186
vn 0.5059726864729314 -0.6649926736501384 -0.5493417738848969
vn 0.5059726864729314 -0.6649926736501384 -0.5493417738848969
vn 0.5059726864729314 -0.6649926736501384 -0.5493417738848969
vn 0.6906969818117359 -0.5221016555427296 -0.5003474198951158
vn 0.6906969818117359 -0.5221016555427296 -0.5003474198951158
vn 0.6906969818117359 -0.5221016555427296 -0.5003474198951158
vn 0.8958910662691099 0.2943642074884218 -0.3327595388999551
vn 0.8958910662691099 0.2943642074884218 -0.3327595388999551
vn 0.8958910662691099 0.2943642074884218 -0.3327595388999551
vn 0.8150876125251529 0.23973165074269204 -0.5274096316339225
vn 0.8150876125251529 0.23973165074269204 -0.5274096316339225
vn 0.8150876125251529 0.23973165074269204 -0.5274096316339225
vn 0.04470326535017067 0.9939902530802655 -0.09992494607685208
vn 0.04470326535017067 0.9939902530802655 -0.09992494607685208
vn 0.04470326535017067 0.9939902530802655 -0.09992494607685208
vn -0.2691867312060478 0.8639016024752232 -0.42569064469793605
vn -0.2691867312060478 0.8639016024752232 -0.42569064469793605
vn -0.2691867312060478 0.8639016024752232 -0.42569064469793605
vn -0.2389124373726212 0.9705817768262736 0.02986405467157765
vn -0.2389124373726212 0.9705817768262736 0.02986405467157765
vn -0.2389124373726212 0.9705817768262736 0.02986405467157765
vn -0.17932025662358167 0.9806576534102123 0.07845261227281698
vn -0.17932025662358167 0.9806576534102123 0.07845261227281698
vn -0.17932025662358167 0.9806576534102123 0.07845261227281698
vn -0.18028514804352283 0.9811672480060953 0.06934044155520108
vn -0.18028514804352283 0.9811672480060953 0.06934044155520108
vn -0.18028514804352283 0.9811672480060953 0.06934044155520108
vn -0.054127929883997054 0.9776857335296968 0.20297973706498895
vn -0.054127929883997054 0.9776857335296968 0.20297973706498895
vn -0.054127929883997054 0.9776857335296968 0.20297973706498895
vn 0.21807584002804997 0.5326083016069681 -0.8177844001051874
vn 0.21807584002804997 0.5326083016069681 -0.8177844001051874
vn 0.21807584002804997 0.5326083016069681 -0.8177844001051874
vn -0.0811749182997177 0.2860449501990052 -0.9547716580966795
vn -0.0811749182997177 0.2860449501990052 -0.9547716580966795
vn -0.0811749182997177 0.2860449501990052 -0.9547716580966795
vn -0.11105405863761952 -0.4728753464569605 -0.8741029131477149
vn -0.11105405863761952 -0.4728753464569605 -0.8741029131477149
vn -0.11105405863761952 -0.4728753464569605 -0.8741029131477149
vn -0.35048518434792425 -0.6793354807731372 -0.6447196600967989
vn -0.35048518434792425 -0.6793354807731372 -0.6447196600967989
vn -0.35048518434792425 -0.6793354807731372 -0.6447196600967989
vn -0.8701536976727998 0.4822101741270099 0.10151793139515998
vn -0.8701536976727998 0.4822101741270099 0.10151793139515998
vn -0.8701536976727998 0.4822101741270099 0.10151793139515998
vn -0.7525766947068778 0.658504607868518 0
vn -0.7525766947068778 0.658504607868518 0
vn -0.7525766947068778 0.658504607868518 0
vn -0.9061831399952655 -0.42288546533112387 0
vn -0.9061831399952655 -0.42288546533112387 0
vn -0.9061831399952655 -0.42288546533112387 0
vn -0.90073530012986 -0.14812091602135474 -0.40833333605886984
vn -0.90073530012986 -0.14812091602135474 -0.40833333605886984
vn -0.90073530012986 -0.14812091602135474 -0.40833333605886984
vn -0.7242859683401482 0.6337502222976297 0.2716072381275556
vn -0.7242859683401482 0.6337502222976297 0.2716072381275556
vn -0.7242859683401482 0.6337502222976297 0.2716072381275556
vn -0.5240974256643347 0.851658316704544 0
vn -0.5240974256643347 0.851658316704544 0
vn -0.5240974256643347 0.851658316704544 0
vn -0.46765819370007056 0.7599445647626146 -0.4514200619743737
vn -0.46765819370007056 0.7599445647626146 -0.4514200619743737
vn -0.46765819370007056 0.7599445647626146 -0.4514200619743737
vn -0.9384725581381714 0.33439826784233695 0.0862963271851192
vn -0.9384725581381714 0.33439826784233695 0.0862963271851192
vn -0.9384725581381714 0.33439826784233695 0.0862963271851192
vn -0.8320298856918101 -0.5200186785573814 0.19314979489274164
vn -0.8320298856918101 -0.5200186785573814 0.19314979489274164
vn -0.8320298856918101 -0.5200186785573814 0.19314979489274164
vn -0.8307852844299914 -0.5213893854008912 0.19480482531461868
vn -0.8307852844299914 -0.5213893854008912 0.19480482531461868
vn -0.8307852844299914 -0.5213893854008912 0.19480482531461868
vn -0.9899494936611666 -0.1414213562373095 0
vn -0.9899494936611666 -0.1414213562373095 0
vn -0.9899494936611666 -0.1414213562373095 0
vn -0.7359609067949191 -0.45997556674682444 0.4967736120865704
vn -0.7359609067949191 -0.45997556674682444 0.4967736120865704
vn -0.7359609067949191 -0.45997556674682444 0.4967736120865704
g Asteroid_1
usemtl 2
f 1/1/1 3/2/2 2/3/3
f 1/4/4 4/5/5 3/6/6
f 5/7/7 6/8/8 7/9/9
f 5/10/10 8/11/11 6/12/12
f 9/13/13 10/14/14 11/15/15
f 9/16/16 12/17/17 10/18/18
f 13/19/19 14/20/20 15/21/21
f 13/22/22 16/23/23 14/24/24
f 17/25/25 18/26/26 19/27/27
f 17/28/28 20/29/29 18/30/30
f 21/31/31 22/32/32 23/33/33
f 21/34/34 24/35/35 22/36/36
f 25/37/37 26/38/38 27/39/39
f 25/40/40 28/41/41 26/42/42
f 29/43/43 30/44/44 31/45/45
f 29/46/46 32/47/47 30/48/48
f 33/49/49 34/50/50 35/51/51
f 33/52/52 36/53/53 34/54/54
f 37/55/55 38/56/56 39/57/57
f 37/58/58 40/59/59 38/60/60
f 41/61/61 42/62/62 43/63/63
f 41/64/64 44/65/65 42/66/66
f 45/67/67 46/68/68 47/69/69
f 45/70/70 48/71/71 46/72/72
f 49/73/73 50/74/74 51/75/75
f 49/76/76 52/77/77 50/78/78
f 53/79/79 54/80/80 55/81/81
f 53/82/82 56/83/83 54/84/84
f 57/85/85 58/86/86 59/87/87
f 57/88/88 60/89/89 58/90/90
f 61/91/91 62/92/92 63/93/93
f 61/94/94 64/95/95 62/96/96
f 65/97/97 66/98/98 67/99/99
f 65/100/100 68/101/101 66/102/102
f 69/103/103 70/104/104 71/105/105
f 69/106/106 72/107/107 70/108/108
f 73/109/109 74/110/110 75/111/111
f 73/112/112 76/113/113 74/114/114
f 77/115/115 78/116/116 79/117/117
f 77/118/118 80/119/119 78/120/120
f 81/121/121 82/122/122 83/123/123
f 81/124/124 84/125/125 82/126/126
f 85/127/127 86/128/128 87/129/129
f 85/130/130 88/131/131 86/132/132
f 89/133/133 90/134/134 91/135/135
f 89/136/136 92/137/137 90/138/138
f 93/139/139 94/140/140 95/141/141
f 93/142/142 96/143/143 94/144/144
f 97/145/145 98/146/146 99/147/147
f 97/148/148 100/149/149 98/150/150
f 101/151/151 102/152/152 103/153/153
f 101/154/154 104/155/155 102/156/156
f 105/157/157 106/158/158 107/159/159
f 105/160/160 108/161/161 106/162/162
