mtllib material.mtl
o Default
v -1.125 0 -0.625
v -0.625 1.375 -1.875
v -2.5 1.25 -0.875
v -1.125 0 -0.625
v 1.5 0.375 -0.75
v -0.625 1.375 -1.875
v 1.375 1.875 -1.875
v -4.440892098500626e-16 0.5 0
v -4.440892098500626e-16 0.5 0
v -1.125 0 -0.625
v -0.625 1.375 -1.875
v -2.25 -0.25 0.875
v -4.440892098500626e-16 -0.375 2.375
v -2.25 -0.25 0.875
v -4.440892098500626e-16 0.5 0
v -2.25 -0.25 2.875
v 2.125 4.440892098500626e-16 1.875
v -4.440892098500626e-16 0.5 0
v 1.5 0.375 -0.75
v -4.440892098500626e-16 -0.375 2.375
v 2.25 1.25 -0.625
v 1.375 1.875 -1.875
v 2 3.25 -1.125
v 1.5 0.375 -0.75
v 1.375 1.875 -1.875
v -0.25 3.625 -1.875
v 2 3.25 -1.125
v -0.625 1.375 -1.875
v -0.625 1.375 -1.875
v -2.5 3.25 -0.875
v -0.25 3.625 -1.875
v -2.5 1.25 -0.875
v -0.25 3.625 -1.875
v -1.625 4.625 -0.625
v -0.125 4.875 -1.125
v -2.5 3.25 -0.875
v 2 3.25 -1.125
v -0.125 4.875 -1.125
v 1.375 4.375 -0.5
v -0.25 3.625 -1.875
v 2.125 4.440892098500626e-16 1.875
v 2.25 1.25 -0.625
v 3 1.25 1.125
v 1.5 0.375 -0.75
v -4.440892098500626e-16 -0.375 2.375
v 1.625 4.440892098500626e-16 3.625
v -0.375 -0.25 4.75
v 2.125 4.440892098500626e-16 1.875
v -2.25 -0.25 2.875
v -0.375 -0.25 4.75
v -1.875 -0.25 4.375
v -4.440892098500626e-16 -0.375 2.375
v 0.25 3.375 4.875
v 0.75 4.875 4.375
v 0.75 4.875 4.375
v 2 3.25 4.375
v 1.625 4.440892098500626e-16 3.625
v 3 1.25 1.125
v 3 1.25 2.875
v 2.125 4.440892098500626e-16 1.875
v 0.625 1.375 4.875
v 2 3.25 4.375
v 0.25 3.375 4.875
v 2 1.875 4
v -0.125 2 2.875
v -0.125 2 2.875
v -0.125 2 2.875
v -0.125 2 2.875
v 1.625 4.440892098500626e-16 3.625
v 2 1.875 4
v 0.625 1.375 4.875
v 3 1.25 2.875
v -0.375 -0.25 4.75
v 0.625 1.375 4.875
v -1.25 1.25 5.375
v 1.625 4.440892098500626e-16 3.625
v -1.25 1.25 5.375
v 0.25 3.375 4.875
v -1.25 3.25 5.375
v 0.625 1.375 4.875
v -1.25 3.25 5.375
v 0.75 4.875 4.375
v -0.375 4.875 4.5
v 0.25 3.375 4.875
v 0.75 4.875 4.375
v -0.375 5.125 2.875
v -0.375 4.875 4.5
v 1.5 4.375 2.875
v 1.625 4.375 0.875
v -0.125 4.875 -1.125
v -0.375 5.125 0.875
v 1.375 4.375 -0.5
v 1.5 4.375 2.875
v -0.375 5.125 0.875
v -0.375 5.125 2.875
v 1.625 4.375 0.875
v -1.875 -0.25 4.375
v -1.25 1.25 5.375
v -2.875 1.125 4.625
v -0.375 -0.25 4.75
v -1.625 4.625 -0.625
v -0.375 5.125 0.875
v -0.125 4.875 -1.125
v -2.125 4.375 0.875
v -2.125 4.875 4.375
v -0.375 5.125 2.875
v -2.125 4.375 2.875
v -0.375 4.875 4.5
v -2.875 3.25 4.5
v -0.375 4.875 4.5
v -2.125 4.875 4.375
v -1.25 3.25 5.375
v 2 1.875 4
v 3 3.25 2.875
v 2 3.25 4.375
v 3 1.25 2.875
v 3 1.25 2.875
v 3 3.25 0.875
v 3 3.25 2.875
v 3 1.25 1.125
v 3 1.25 1.125
v 2 3.25 -1.125
v 3 3.25 0.875
v 2.25 1.25 -0.625
v 3 3.25 0.875
v 1.375 4.375 -0.5
v 1.625 4.375 0.875
v 2 3.25 -1.125
v 3 3.25 2.875
v 1.625 4.375 0.875
v 1.5 4.375 2.875
v 3 3.25 0.875
v 2 3.25 4.375
v 1.5 4.375 2.875
v 0.75 4.875 4.375
v 3 3.25 2.875
v -2.125 4.375 2.875
v -0.375 5.125 0.875
v -2.125 4.375 0.875
v -0.375 5.125 2.875
v -2.875 1.125 4.625
v -1.25 3.25 5.375
v -2.875 3.25 4.5
v -1.25 1.25 5.375
v -1.125 0 -0.625
v -3.625 1.25 0.875
v -2.5 1.25 -0.875
v -2.25 -0.25 0.875
v -2.5 3.25 -0.875
v -2.125 4.375 0.875
v -1.625 4.625 -0.625
v -3.625 3.25 0.875
v -2.5 1.25 -0.875
v -3.625 3.25 0.875
v -2.5 3.25 -0.875
v -3.625 1.25 0.875
v -2.25 -0.25 2.875
v -2.875 1.125 4.625
v -3.625 1.25 2.875
v -1.875 -0.25 4.375
v -2.25 -0.25 0.875
v -3.625 1.25 2.875
v -3.625 1.25 0.875
v -2.25 -0.25 2.875
v -3.625 1.25 2.875
v -2.875 3.25 4.5
v -3.625 3.25 2.875
v -2.875 1.125 4.625
v -3.625 3.25 0.875
v -2.125 4.375 2.875
v -2.125 4.375 0.875
v -3.625 3.25 2.875
v -3.625 3.25 2.875
v -2.125 4.875 4.375
v -2.125 4.375 2.875
v -2.875 3.25 4.5
v -3.625 1.25 0.875
v -3.625 3.25 2.875
v -3.625 3.25 0.875
v -3.625 1.25 2.875
vt 0 0.5
vt 0.5 1
vt 0 1
vt 0 0.5
vt 0.5 0.5
vt 0.5 1
vt 0 0.5
vt 0.5 1
vt 0 1
vt 0 0.5
vt 0.5 0.5
vt 0.5 1
vt 0 0.5
vt 0.5 1
vt 0 1
vt 0 0.5
vt 0.5 0.5
vt 0.5 1
vt 0 0.5
vt 0.5 1
vt 0 1
vt 0 0.5
vt 0.5 0.5
vt 0.5 1
vt 0 0.5
vt 0.5 1
vt 0 1
vt 0 0.5
vt 0.5 0.5
vt 0.5 1
vt 0 0.5
vt 0.5 1
vt 0 1
vt 0 0.5
vt 0.5 0.5
vt 0.5 1
vt 0 0.5
vt 0.5 1
vt 0 1
vt 0 0.5
vt 0.5 0.5
vt 0.5 1
vt 0 0.5
vt 0.5 1
vt 0 1
vt 0 0.5
vt 0.5 0.5
vt 0.5 1
vt 0 0.5
vt 0.5 1
vt 0 1
vt 0 0.5
vt 0.5 0.5
vt 0.5 1
vt 0 0.5
vt 0.5 1
vt 0 1
vt 0 0.5
vt 0.5 0.5
vt 0.5 1
vt 0 0.5
vt 0.5 1
vt 0 1
vt 0 0.5
vt 0.5 0.5
vt 0.5 1
vt 0 0.5
vt 0.5 1
vt 0 1
vt 0 0.5
vt 0.5 0.5
vt 0.5 1
vt 0 0.5
vt 0.5 1
vt 0 1
vt 0 0.5
vt 0.5 0.5
vt 0.5 1
vt 0 0.5
vt 0.5 1
vt 0 1
vt 0 0.5
vt 0.5 0.5
vt 0.5 1
vt 0 0.5
vt 0.5 1
vt 0 1
vt 0 0.5
vt 0.5 0.5
vt 0.5 1
vt 0 0.5
vt 0.5 1
vt 0 1
vt 0 0.5
vt 0.5 0.5
vt 0.5 1
vt 0 0.9375
vt 0.0625 1
vt 0 1
vt 0 0.9375
vt 0.0625 0.9375
vt 0.0625 1
vt 0 0.5
vt 0.5 1
vt 0 1
vt 0 0.5
vt 0.5 0.5
vt 0.5 1
vt 0 0.5
vt 0.5 1
vt 0 1
vt 0 0.5
vt 0.5 0.5
vt 0.5 1
vt 0 0.5
vt 0.5 1
vt 0 1
vt 0 0.5
vt 0.5 0.5
vt 0.5 1
vt 0 0.5
vt 0.5 1
vt 0 1
vt 0 0.5
vt 0.5 0.5
vt 0.5 1
vt 0 0.5
vt 0.5 1
vt 0 1
vt 0 0.5
vt 0.5 0.5
vt 0.5 1
vt 0 0.5
vt 0.5 1
vt 0 1
vt 0 0.5
vt 0.5 0.5
vt 0.5 1
vt 0 0.5
vt 0.5 1
vt 0 1
vt 0 0.5
vt 0.5 0.5
vt 0.5 1
vt 0 0.5
vt 0.5 1
vt 0 1
vt 0 0.5
vt 0.5 0.5
vt 0.5 1
vt 0 0.5
vt 0.5 1
vt 0 1
vt 0 0.5
vt 0.5 0.5
vt 0.5 1
vt 0 0.5
vt 0.5 1
vt 0 1
vt 0 0.5
vt 0.5 0.5
vt 0.5 1
vt 0 0.5
vt 0.5 1
vt 0 1
vt 0 0.5
vt 0.5 0.5
vt 0.5 1
vt 0 0.5
vt 0.5 1
vt 0 1
vt 0 0.5
vt 0.5 0.5
vt 0.5 1
vt 0.5 0.5
vt 0 1
vt 0.5 1
vt 0.5 0.5
vt 0 0.5
vt 0 1
vt 0 0.5
vt 0.5 1
vt 0 1
vt 0 0.5
vt 0.5 0.5
vt 0.5 1
vt 0.5 0.5
vt 0 1
vt 0.5 1
vt 0.5 0.5
vt 0 0.5
vt 0 1
vt 0 0.5
vt 0.5 1
vt 0 1
vt 0 0.5
vt 0.5 0.5
vt 0.5 1
vt 0 0.5
vt 0.5 1
vt 0 1
vt 0 0.5
vt 0.5 0.5
vt 0.5 1
vt 0 0.5
vt 0.5 1
vt 0 1
vt 0 0.5
vt 0.5 0.5
vt 0.5 1
vt 0 0.5
vt 0.5 1
vt 0 1
vt 0 0.5
vt 0.5 0.5
vt 0.5 1
vt 0 0.5
vt 0.5 1
vt 0 1
vt 0 0.5
vt 0.5 0.5
vt 0.5 1
vt 0 0.5
vt 0.5 1
vt 0 1
vt 0 0.5
vt 0.5 0.5
vt 0.5 1
vt 0 0.5
vt 0.5 1
vt 0 1
vt 0 0.5
vt 0.5 0.5
vt 0.5 1
vt 0 0.5
vt 0.5 1
vt 0 1
vt 0 0.5
vt 0.5 0.5
vt 0.5 1
vt 0 0.5
vt 0.5 1
vt 0 1
vt 0 0.5
vt 0.5 0.5
vt 0.5 1
vt 0 0.5
vt 0.5 1
vt 0 1
vt 0 0.5
vt 0.5 0.5
vt 0.5 1
vt 0 0.5
vt 0.5 1
vt 0 1
vt 0 0.5
vt 0.5 0.5
vt 0.5 1
vt 0.5 0.5
vt 0 1
vt 0.5 1
vt 0.5 0.5
vt 0 0.5
vt 0 1
vt 0.5 0.5
vt 0 1
vt 0.5 1
vt 0.5 0.5
vt 0 0.5
vt 0 1
vn -0.36395786420633053 -0.5506029227736795 -0.7512463607335798
vn -0.36395786420633053 -0.5506029227736795 -0.7512463607335798
vn -0.36395786420633053 -0.5506029227736795 -0.7512463607335798
vn 0 0 0
vn 0 0 0
vn 0 0 0
vn 0.14642375250996698 -0.5856950100398679 -0.797195985887598
vn 0.14642375250996698 -0.5856950100398679 -0.797195985887598
vn 0.14642375250996698 -0.5856950100398679 -0.797195985887598
vn -0.24622547115604437 -0.9071464726801636 -0.3412598635320616
vn -0.24622547115604437 -0.9071464726801636 -0.3412598635320616
vn -0.24622547115604437 -0.9071464726801636 -0.3412598635320616
vn 0.5675917092393353 -0.6572114528034407 -0.4958959143880506
vn 0.5675917092393353 -0.6572114528034407 -0.4958959143880506
vn 0.5675917092393353 -0.6572114528034407 -0.4958959143880506
vn 0.3523444117518374 -0.9294602585867431 0.10934826571608751
vn 0.3523444117518374 -0.9294602585867431 0.10934826571608751
vn 0.3523444117518374 -0.9294602585867431 0.10934826571608751
vn 0.1755699039057664 -0.9237678020888014 -0.34033550603271634
vn 0.1755699039057664 -0.9237678020888014 -0.34033550603271634
vn 0.1755699039057664 -0.9237678020888014 -0.34033550603271634
vn -0.055470019622522924 -0.9984603532054125 0
vn -0.055470019622522924 -0.9984603532054125 0
vn -0.055470019622522924 -0.9984603532054125 0
vn -0.1361889252445527 -0.9847506902298434 -0.10825273545079823
vn -0.1361889252445527 -0.9847506902298434 -0.10825273545079823
vn -0.1361889252445527 -0.9847506902298434 -0.10825273545079823
vn 0.08395012707685615 -0.9350307257180852 -0.3444850042119262
vn 0.08395012707685615 -0.9350307257180852 -0.3444850042119262
vn 0.08395012707685615 -0.9350307257180852 -0.3444850042119262
vn 0.8073758688087319 -0.04613576393192754 -0.5882309901320761
vn 0.8073758688087319 -0.04613576393192754 -0.5882309901320761
vn 0.8073758688087319 -0.04613576393192754 -0.5882309901320761
vn 0.6191162575597471 -0.4375088220088879 -0.6521357912962669
vn 0.6191162575597471 -0.4375088220088879 -0.6521357912962669
vn 0.6191162575597471 -0.4375088220088879 -0.6521357912962669
vn 0.3472705447583047 0.32246550584699724 -0.8805788813514156
vn 0.3472705447583047 0.32246550584699724 -0.8805788813514156
vn 0.3472705447583047 0.32246550584699724 -0.8805788813514156
vn 0 0 -1
vn 0 0 -1
vn 0 0 -1
vn -0.41476519262297457 0.0691275321038291 -0.9072988588627569
vn -0.41476519262297457 0.0691275321038291 -0.9072988588627569
vn -0.41476519262297457 0.0691275321038291 -0.9072988588627569
vn -0.47058823529411764 0 -0.8823529411764706
vn -0.47058823529411764 0 -0.8823529411764706
vn -0.47058823529411764 0 -0.8823529411764706
vn -0.34740859724603396 0.5077510267442035 -0.7883502783660001
vn -0.34740859724603396 0.5077510267442035 -0.7883502783660001
vn -0.34740859724603396 0.5077510267442035 -0.7883502783660001
vn -0.4262654999169186 0.417196021195282 -0.802648866864836
vn -0.4262654999169186 0.417196021195282 -0.802648866864836
vn -0.4262654999169186 0.417196021195282 -0.802648866864836
vn 0.4691704073207877 0.6135305326502608 -0.6351845514496818
vn 0.4691704073207877 0.6135305326502608 -0.6351845514496818
vn 0.4691704073207877 0.6135305326502608 -0.6351845514496818
vn 0.34890686229900564 0.45626281992946893 -0.8185891769322825
vn 0.34890686229900564 0.45626281992946893 -0.8185891769322825
vn 0.34890686229900564 0.45626281992946893 -0.8185891769322825
vn 0.6900990926688719 -0.6605234172687777 -0.29575675400094514
vn 0.6900990926688719 -0.6605234172687777 -0.29575675400094514
vn 0.6900990926688719 -0.6605234172687777 -0.29575675400094514
vn 0.75046918991139 -0.6053784798618546 -0.26516578043535766
vn 0.75046918991139 -0.6053784798618546 -0.26516578043535766
vn 0.75046918991139 -0.6053784798618546 -0.26516578043535766
vn 0.16677365556972096 -0.9829000551662264 0.07806426430923098
vn 0.16677365556972096 -0.9829000551662264 0.07806426430923098
vn 0.16677365556972096 -0.9829000551662264 0.07806426430923098
vn 0.18563003297433717 -0.981187317150067 0.05303715227838205
vn 0.18563003297433717 -0.981187317150067 0.05303715227838205
vn 0.18563003297433717 -0.981187317150067 0.05303715227838205
vn 0 -1 0
vn 0 -1 0
vn 0 -1 0
vn -0.04536092116265145 -0.9979402655783318 0.04536092116265145
vn -0.04536092116265145 -0.9979402655783318 0.04536092116265145
vn -0.04536092116265145 -0.9979402655783318 0.04536092116265145
vn 0 0 0
vn 0 0 0
vn 0 0 0
vn 0.28247523227016064 0.21728864020781588 0.9343411528936083
vn 0.28247523227016064 0.21728864020781588 0.9343411528936083
vn 0.28247523227016064 0.21728864020781588 0.9343411528936083
vn 0.6726727939963122 -0.7399400733959437 0
vn 0.6726727939963122 -0.7399400733959437 0
vn 0.6726727939963122 -0.7399400733959437 0
vn 0.8571714180990858 -0.45307632099523126 0.24490611945688168
vn 0.8571714180990858 -0.45307632099523126 0.24490611945688168
vn 0.8571714180990858 -0.45307632099523126 0.24490611945688168
vn 0.27778604594072004 0.05208488361388501 0.9592299398890489
vn 0.27778604594072004 0.05208488361388501 0.9592299398890489
vn 0.27778604594072004 0.05208488361388501 0.9592299398890489
vn 0.5787156841239347 -0.21457997276505444 0.7867932334718662
vn 0.5787156841239347 -0.21457997276505444 0.7867932334718662
vn 0.5787156841239347 -0.21457997276505444 0.7867932334718662
vn 0 0 0
vn 0 0 0
vn 0 0 0
vn 0 0 0
vn 0 0 0
vn 0 0 0
vn 0.5848976518656018 -0.2699527623995086 0.7648661601319409
vn 0.5848976518656018 -0.2699527623995086 0.7648661601319409
vn 0.5848976518656018 -0.2699527623995086 0.7648661601319409
vn 0.6393660631422402 -0.27173057683545215 0.7192868210350203
vn 0.6393660631422402 -0.27173057683545215 0.7192868210350203
vn 0.6393660631422402 -0.27173057683545215 0.7192868210350203
vn 0.26504307299932794 -0.2350381968107248 0.9351519745447986
vn 0.26504307299932794 -0.2350381968107248 0.9351519745447986
vn 0.26504307299932794 -0.2350381968107248 0.9351519745447986
vn 0.4908771437572074 -0.3630015852994475 0.792003458835158
vn 0.4908771437572074 -0.3630015852994475 0.792003458835158
vn 0.4908771437572074 -0.3630015852994475 0.792003458835158
vn 0.31622776601683794 0 0.9486832980505138
vn 0.31622776601683794 0 0.9486832980505138
vn 0.31622776601683794 0 0.9486832980505138
vn 0.2543992678876603 0.04769986272893631 0.9659222202609603
vn 0.2543992678876603 0.04769986272893631 0.9659222202609603
vn 0.2543992678876603 0.04769986272893631 0.9659222202609603
vn 0.0997230482882053 0.4295762080107305 0.8975074345938476
vn 0.0997230482882053 0.4295762080107305 0.8975074345938476
vn 0.0997230482882053 0.4295762080107305 0.8975074345938476
vn 0.2929430027102191 0.213049456516523 0.9320913722597881
vn 0.2929430027102191 0.213049456516523 0.9320913722597881
vn 0.2929430027102191 0.213049456516523 0.9320913722597881
vn 0.016892831844028906 0.9882306628756911 0.15203548659626015
vn 0.016892831844028906 0.9882306628756911 0.15203548659626015
vn 0.016892831844028906 0.9882306628756911 0.15203548659626015
vn 0.3685770701003707 0.9214426752509268 -0.12285902336679025
vn 0.3685770701003707 0.9214426752509268 -0.12285902336679025
vn 0.3685770701003707 0.9214426752509268 -0.12285902336679025
vn 0.35018775948591063 0.9338340252957616 -0.07295578322623138
vn 0.35018775948591063 0.9338340252957616 -0.07295578322623138
vn 0.35018775948591063 0.9338340252957616 -0.07295578322623138
vn 0.3386218707957141 0.9389060962972073 -0.06156761287194802
vn 0.3386218707957141 0.9389060962972073 -0.06156761287194802
vn 0.3386218707957141 0.9389060962972073 -0.06156761287194802
vn 0.3713906763541038 0.9284766908852594 0
vn 0.3713906763541038 0.9284766908852594 0
vn 0.3713906763541038 0.9284766908852594 0
vn 0.3510389229128257 0.9361037944342019 0.021939932682051605
vn 0.3510389229128257 0.9361037944342019 0.021939932682051605
vn 0.3510389229128257 0.9361037944342019 0.021939932682051605
vn -0.35570379636064364 -0.4112825145419942 0.8392386445383936
vn -0.35570379636064364 -0.4112825145419942 0.8392386445383936
vn -0.35570379636064364 -0.4112825145419942 0.8392386445383936
vn -0.21289851816493977 -0.4790216658711145 0.8515940726597591
vn -0.21289851816493977 -0.4790216658711145 0.8515940726597591
vn -0.21289851816493977 -0.4790216658711145 0.8515940726597591
vn -0.21011927654376678 0.9665486721013272 -0.14708349358063674
vn -0.21011927654376678 0.9665486721013272 -0.14708349358063674
vn -0.21011927654376678 0.9665486721013272 -0.14708349358063674
vn -0.3938250031143627 0.9189250072668462 0.021879166839686815
vn -0.3938250031143627 0.9189250072668462 0.021879166839686815
vn -0.3938250031143627 0.9189250072668462 0.021879166839686815
vn -0.37663827778681847 0.8788226481692432 -0.29294088272308105
vn -0.37663827778681847 0.8788226481692432 -0.29294088272308105
vn -0.37663827778681847 0.8788226481692432 -0.29294088272308105
vn -0.010860586874184577 0.9883134055507965 0.15204821623858408
vn -0.010860586874184577 0.9883134055507965 0.15204821623858408
vn -0.010860586874184577 0.9883134055507965 0.15204821623858408
vn -0.07082286826414026 0.10895825886790811 0.9915201556979638
vn -0.07082286826414026 0.10895825886790811 0.9915201556979638
vn -0.07082286826414026 0.10895825886790811 0.9915201556979638
vn -0.38303653064216386 0.5892869702187136 0.7113535569068757
vn -0.38303653064216386 0.5892869702187136 0.7113535569068757
vn -0.38303653064216386 0.5892869702187136 0.7113535569068757
vn 0.8226894306579764 -0.14957989648326844 0.5484596204386509
vn 0.8226894306579764 -0.14957989648326844 0.5484596204386509
vn 0.8226894306579764 -0.14957989648326844 0.5484596204386509
vn 0.7474093186836598 0 0.6643638388299198
vn 0.7474093186836598 0 0.6643638388299198
vn 0.7474093186836598 0 0.6643638388299198
vn 1 0 0
vn 1 0 0
vn 1 0 0
vn 1 0 0
vn 1 0 0
vn 1 0 0
vn 0.8930329154975162 -0.05581455721859476 -0.4465164577487581
vn 0.8930329154975162 -0.05581455721859476 -0.4465164577487581
vn 0.8930329154975162 -0.05581455721859476 -0.4465164577487581
vn 0.9190212477765677 0.01641109371029585 -0.39386624904710044
vn 0.9190212477765677 0.01641109371029585 -0.39386624904710044
vn 0.9190212477765677 0.01641109371029585 -0.39386624904710044
vn 0.6290820021173965 0.768878002587929 -0.11437854583952664
vn 0.6290820021173965 0.768878002587929 -0.11437854583952664
vn 0.6290820021173965 0.768878002587929 -0.11437854583952664
vn 0.7171371656006362 0.5976143046671968 -0.3585685828003181
vn 0.7171371656006362 0.5976143046671968 -0.3585685828003181
vn 0.7171371656006362 0.5976143046671968 -0.3585685828003181
vn 0.5995785694255084 0.7994380925673445 0.03747366058909427
vn 0.5995785694255084 0.7994380925673445 0.03747366058909427
vn 0.5995785694255084 0.7994380925673445 0.03747366058909427
vn 0.6332377902572627 0.773957299203321 0
vn 0.6332377902572627 0.773957299203321 0
vn 0.6332377902572627 0.773957299203321 0
vn 0.7782509010003872 0.598654539231067 0.18957393742317125
vn 0.7782509010003872 0.598654539231067 0.18957393742317125
vn 0.7782509010003872 0.598654539231067 0.18957393742317125
vn 0.5570860145311556 0.7427813527082074 0.3713906763541037
vn 0.5570860145311556 0.7427813527082074 0.3713906763541037
vn 0.5570860145311556 0.7427813527082074 0.3713906763541037
vn -0.39391929857916763 0.9191450300180578 0
vn -0.39391929857916763 0.9191450300180578 0
vn -0.39391929857916763 0.9191450300180578 0
vn -0.39391929857916763 0.9191450300180578 0
vn -0.39391929857916763 0.9191450300180578 0
vn -0.39391929857916763 0.9191450300180578 0
vn -0.47346522385472717 0.05172309168160885 0.8792925585873504
vn -0.47346522385472717 0.05172309168160885 0.8792925585873504
vn -0.47346522385472717 0.05172309168160885 0.8792925585873504
vn -0.4190581774617469 0 0.9079593845004517
vn -0.4190581774617469 0 0.9079593845004517
vn -0.4190581774617469 0 0.9079593845004517
vn -0.58494006312843 -0.7186406489863569 -0.37603289772541937
vn -0.58494006312843 -0.7186406489863569 -0.37603289772541937
vn -0.58494006312843 -0.7186406489863569 -0.37603289772541937
vn -0.6136834179363612 -0.562543133108331 -0.5540197523036593
vn -0.6136834179363612 -0.562543133108331 -0.5540197523036593
vn -0.6136834179363612 -0.562543133108331 -0.5540197523036593
vn -0.8147949944534272 0.5511848491890831 -0.17973418995296186
vn -0.8147949944534272 0.5511848491890831 -0.17973418995296186
vn -0.8147949944534272 0.5511848491890831 -0.17973418995296186
vn -0.5598009950185916 0.7464013266914555 -0.35987206822623746
vn -0.5598009950185916 0.7464013266914555 -0.35987206822623746
vn -0.5598009950185916 0.7464013266914555 -0.35987206822623746
vn -0.8411784753765535 0 -0.5407575913134988
vn -0.8411784753765535 0 -0.5407575913134988
vn -0.8411784753765535 0 -0.5407575913134988
vn -0.8411784753765535 0 -0.5407575913134988
vn -0.8411784753765535 0 -0.5407575913134988
vn -0.8411784753765535 0 -0.5407575913134988
vn -0.7120881840990554 -0.6527475020908008 0.25855582875025224
vn -0.7120881840990554 -0.6527475020908008 0.25855582875025224
vn -0.7120881840990554 -0.6527475020908008 0.25855582875025224
vn -0.7762423152366126 -0.5998236072282915 0.19406057880915314
vn -0.7762423152366126 -0.5998236072282915 0.19406057880915314
vn -0.7762423152366126 -0.5998236072282915 0.19406057880915314
vn -0.7371541402007414 -0.6757246285173463 0
vn -0.7371541402007414 -0.6757246285173463 0
vn -0.7371541402007414 -0.6757246285173463 0
vn -0.7371541402007414 -0.6757246285173463 0
vn -0.7371541402007414 -0.6757246285173463 0
vn -0.7371541402007414 -0.6757246285173463 0
vn -0.9079593845004517 0 0.4190581774617469
vn -0.9079593845004517 0 0.4190581774617469
vn -0.9079593845004517 0 0.4190581774617469
vn -0.9182943012599628 0.02324795699392311 0.39521526889669284
vn -0.9182943012599628 0.02324795699392311 0.39521526889669284
vn -0.9182943012599628 0.02324795699392311 0.39521526889669284
vn -0.6 0.8 0
vn -0.6 0.8 0
vn -0.6 0.8 0
vn -0.6 0.8 0
vn -0.6 0.8 0
vn -0.6 0.8 0
vn -0.5797409637607478 0.772987951680997 -0.25766265056033233
vn -0.5797409637607478 0.772987951680997 -0.25766265056033233
vn -0.5797409637607478 0.772987951680997 -0.25766265056033233
vn -0.8275866375760426 0.41134483761176077 0.381963063496635
vn -0.8275866375760426 0.41134483761176077 0.381963063496635
vn -0.8275866375760426 0.41134483761176077 0.381963063496635
vn -1 0 0
vn -1 0 0
vn -1 0 0
vn -1 0 0
vn -1 0 0
vn -1 0 0
g Asteroid_3
usemtl 2
f 1/1/1 3/2/2 2/3/3
f 1/4/4 4/5/5 3/6/6
f 5/7/7 6/8/8 7/9/9
f 5/10/10 8/11/11 6/12/12
f 9/13/13 10/14/14 11/15/15
f 9/16/16 12/17/17 10/18/18
f 13/19/19 14/20/20 15/21/21
f 13/22/22 16/23/23 14/24/24
f 17/25/25 18/26/26 19/27/27
f 17/28/28 20/29/29 18/30/30
f 21/31/31 22/32/32 23/33/33
f 21/34/34 24/35/35 22/36/36
f 25/37/37 26/38/38 27/39/39
f 25/40/40 28/41/41 26/42/42
f 29/43/43 30/44/44 31/45/45
f 29/46/46 32/47/47 30/48/48
f 33/49/49 34/50/50 35/51/51
f 33/52/52 36/53/53 34/54/54
f 37/55/55 38/56/56 39/57/57
f 37/58/58 40/59/59 38/60/60
f 41/61/61 42/62/62 43/63/63
f 41/64/64 44/65/65 42/66/66
f 45/67/67 46/68/68 47/69/69
f 45/70/70 48/71/71 46/72/72
f 49/73/73 50/74/74 51/75/75
f 49/76/76 52/77/77 50/78/78
f 53/79/79 54/80/80 55/81/81
f 53/82/82 56/83/83 54/84/84
f 57/85/85 58/86/86 59/87/87
f 57/88/88 60/89/89 58/90/90
f 61/91/91 62/92/92 63/93/93
f 61/94/94 64/95/95 62/96/96
usemtl 4
f 65/97/97 66/98/98 67/99/99
f 65/100/100 68/101/101 66/102/102
usemtl 2
f 69/103/103 70/104/104 71/105/105
f 69/106/106 72/107/107 70/108/108
f 73/109/109 74/110/110 75/111/111
f 73/112/112 76/113/113 74/114/114
f 77/115/115 78/116/116 79/117/117
f 77/118/118 80/119/119 78/120/120
f 81/121/121 82/122/122 83/123/123
f 81/124/124 84/125/125 82/126/126
f 85/127/127 86/128/128 87/129/129
f 85/130/130 88/131/131 86/132/132
f 89/133/133 90/134/134 91/135/135
f 89/136/136 92/137/137 90/138/138
f 93/139/139 94/140/140 95/141/141
f 93/142/142 96/143/143 94/144/144
f 97/145/145 98/146/146 99/147/147
f 97/148/148 100/149/149 98/150/150
f 101/151/151 102/152/152 103/153/153
f 101/154/154 104/155/155 102/156/156
f 105/157/157 106/158/158 107/159/159
f 105/160/160 108/161/161 106/162/162
f 109/163/163 110/164/164 111/165/165
f 109/166/166 112/167/167 110/168/168
f 113/169/169 114/170/170 115/171/171
f 113/172/172 116/173/173 114/174/174
f 117/175/175 118/176/176 119/177/177
f 117/178/178 120/179/179 118/180/180
f 121/181/181 122/182/182 123/183/183
f 121/184/184 124/185/185 122/186/186
f 125/187/187 126/188/188 127/189/189
f 125/190/190 128/191/191 126/192/192
f 129/193/193 130/194/194 131/195/195
f 129/196/196 132/197/197 130/198/198
f 133/199/199 134/200/200 135/201/201
f 133/202/202 136/203/203 134/204/204
f 137/205/205 138/206/206 139/207/207
f 137/208/208 140/209/209 138/210/210
f 141/211/211 142/212/212 143/213/213
f 141/214/214 144/215/215 142/216/216
f 145/217/217 146/218/218 147/219/219
f 145/220/220 148/221/221 146/222/222
f 149/223/223 150/224/224 151/225/225
f 149/226/226 152/227/227 150/228/228
f 153/229/229 154/230/230 155/231/231
f 153/232/232 156/233/233 154/234/234
f 157/235/235 158/236/236 159/237/237
f 157/238/238 160/239/239 158/240/240
f 161/241/241 162/242/242 163/243/243
f 161/244/244 164/245/245 162/246/246
f 165/247/247 166/248/248 167/249/249
f 165/250/250 168/251/251 166/252/252
f 169/253/253 170/254/254 171/255/255
f 169/256/256 172/257/257 170/258/258
f 173/259/259 174/260/260 175/261/261
f 173/262/262 176/263/263 174/264/264
f 177/265/265 178/266/266 179/267/267
f 177/268/268 180/269/269 178/270/270
