mtllib material.mtl
o Default
v -1.5 0 2.375
v 0.625 -0.75 1.625
v -0.75 0 0
v -2.125 0 0.5
v -0.75 0 0
v -1.625 2 0.5
v 0.25 1.5 0.5
v -2.125 0 0.5
v 0.625 -0.75 1.625
v 0.25 1.5 0.5
v -0.25 1.125 2
v -0.75 0 0
v -2.125 1.75 2.5
v 0.25 1.5 0.5
v -1.625 2 0.5
v -0.25 1.125 2
v -1.5 0 2.375
v -0.25 1.125 2
v -2.125 1.75 2.5
v 0.625 -0.75 1.625
v -2.125 0 0.5
v -2.125 1.75 2.5
v -1.625 2 0.5
v -1.5 -2.220446049250313e-16 2.375
vt 0 0.5
vt 0.5 1
vt 0 1
vt 0 0.5
vt 0.5 0.5
vt 0.5 1
vt 0 0.5
vt 0.5 1
vt 0 1
vt 0 0.5
vt 0.5 0.5
vt 0.5 1
vt 0 0.5
vt 0.5 1
vt 0 1
vt 0 0.5
vt 0.5 0.5
vt 0.5 1
vt 0 0.5
vt 0.5 1
vt 0 1
vt 0 0.5
vt 0.5 0.5
vt 0.5 1
vt 0 0.5
vt 0.5 1
vt 0 1
vt 0 0.5
vt 0.5 0.5
vt 0.5 1
vt 0 0.5
vt 0.5 1
vt 0 1
vt 0 0.5
vt 0.5 0.5
vt 0.5 1
vn -0.3666732343909733 -0.9231159497386785 -0.11579154770241264
vn -0.3666732343909733 -0.9231159497386785 -0.11579154770241264
vn -0.3666732343909733 -0.9231159497386785 -0.11579154770241264
vn 0 -1 0
vn 0 -1 0
vn 0 -1 0
vn 0.07242859683401483 0.2716072381275556 -0.9596789080506964
vn 0.07242859683401483 0.2716072381275556 -0.9596789080506964
vn 0.07242859683401483 0.2716072381275556 -0.9596789080506964
vn -0.34050261230349943 0.08512565307587486 -0.9363821838346235
vn -0.34050261230349943 0.08512565307587486 -0.9363821838346235
vn -0.34050261230349943 0.08512565307587486 -0.9363821838346235
vn 0.867502004010629 0.33047695390881104 0.3717865731474124
vn 0.867502004010629 0.33047695390881104 0.3717865731474124
vn 0.867502004010629 0.33047695390881104 0.3717865731474124
vn 0.6882472016116853 -0.22941573387056177 -0.6882472016116853
vn 0.6882472016116853 -0.22941573387056177 -0.6882472016116853
vn 0.6882472016116853 -0.22941573387056177 -0.6882472016116853
vn 0.2533546010575173 0.9500797539656898 0.18209861951009054
vn 0.2533546010575173 0.9500797539656898 0.18209861951009054
vn 0.2533546010575173 0.9500797539656898 0.18209861951009054
vn 0.3778759707588709 0.8607174889507616 0.34113802915731406
vn 0.3778759707588709 0.8607174889507616 0.34113802915731406
vn 0.3778759707588709 0.8607174889507616 0.34113802915731406
vn 0.26567184839641084 0.026046259646706947 0.963711606928157
vn 0.26567184839641084 0.026046259646706947 0.963711606928157
vn 0.26567184839641084 0.026046259646706947 0.963711606928157
vn 0.31997155934758637 -0.039996444918448296 0.9465825297366096
vn 0.31997155934758637 -0.039996444918448296 0.9465825297366096
vn 0.31997155934758637 -0.039996444918448296 0.9465825297366096
vn -0.9490077213769493 0.23725193034423733 -0.20759543905120767
vn -0.9490077213769493 0.23725193034423733 -0.20759543905120767
vn -0.9490077213769493 0.23725193034423733 -0.20759543905120767
vn -0.8922045061903834 -0.33988743092966983 0.2974015020634611
vn -0.8922045061903834 -0.33988743092966983 0.2974015020634611
vn -0.8922045061903834 -0.33988743092966983 0.2974015020634611
g Asteroid_2
usemtl 2
f 1/1/1 3/2/2 2/3/3
f 1/4/4 4/5/5 3/6/6
f 5/7/7 6/8/8 7/9/9
f 5/10/10 8/11/11 6/12/12
f 9/13/13 10/14/14 11/15/15
f 9/16/16 12/17/17 10/18/18
f 13/19/19 14/20/20 15/21/21
f 13/22/22 16/23/23 14/24/24
f 17/25/25 18/26/26 19/27/27
f 17/28/28 20/29/29 18/30/30
f 21/31/31 22/32/32 23/33/33
f 21/34/34 24/35/35 22/36/36
